<mxfile host="app.diagrams.net" modified="2024-05-18T03:49:41.533Z" agent="Mozilla/5.0 (Windows NT 10.0; Win64; x64) AppleWebKit/537.36 (KHTML, like Gecko) Chrome/125.0.0.0 Safari/537.36" etag="OOjK--CfJzYed-y5Ors4" version="24.4.4" type="github">
  <diagram name="PÃ¡gina-1" id="e83XRgTXeSW-5fit0e9V">
    <mxGraphModel dx="1195" dy="1791" grid="1" gridSize="10" guides="1" tooltips="1" connect="1" arrows="1" fold="1" page="1" pageScale="1" pageWidth="827" pageHeight="1169" math="0" shadow="0">
      <root>
        <mxCell id="0" />
        <mxCell id="1" parent="0" />
        <mxCell id="NQ36R5JoBt0L2JiC82tn-7" value="" style="rounded=1;whiteSpace=wrap;html=1;" vertex="1" parent="1">
          <mxGeometry x="220" y="-10" width="430" height="510" as="geometry" />
        </mxCell>
        <mxCell id="NQ36R5JoBt0L2JiC82tn-6" value="" style="rounded=1;whiteSpace=wrap;html=1;" vertex="1" parent="1">
          <mxGeometry x="240" y="40" width="290" height="390" as="geometry" />
        </mxCell>
        <mxCell id="NQ36R5JoBt0L2JiC82tn-3" value="" style="rounded=1;whiteSpace=wrap;html=1;" vertex="1" parent="1">
          <mxGeometry x="260" y="240" width="200" height="150" as="geometry" />
        </mxCell>
        <mxCell id="NQ36R5JoBt0L2JiC82tn-14" value="" style="edgeStyle=orthogonalEdgeStyle;rounded=0;orthogonalLoop=1;jettySize=auto;html=1;" edge="1" parent="1" source="NQ36R5JoBt0L2JiC82tn-2" target="NQ36R5JoBt0L2JiC82tn-13">
          <mxGeometry relative="1" as="geometry" />
        </mxCell>
        <mxCell id="NQ36R5JoBt0L2JiC82tn-2" value="vmlinux server&lt;div&gt;&lt;br&gt;&lt;/div&gt;" style="image;sketch=0;aspect=fixed;html=1;points=[];align=center;fontSize=12;image=img/lib/mscae/VM_Linux.svg;" vertex="1" parent="1">
          <mxGeometry x="279" y="270" width="50" height="46" as="geometry" />
        </mxCell>
        <mxCell id="NQ36R5JoBt0L2JiC82tn-4" value="subnet" style="text;html=1;align=center;verticalAlign=middle;whiteSpace=wrap;rounded=0;" vertex="1" parent="1">
          <mxGeometry x="340" y="360" width="60" height="30" as="geometry" />
        </mxCell>
        <mxCell id="NQ36R5JoBt0L2JiC82tn-5" value="vnet" style="image;aspect=fixed;html=1;points=[];align=center;fontSize=12;image=img/lib/azure2/networking/Virtual_Networks.svg;" vertex="1" parent="1">
          <mxGeometry x="476.5" y="370" width="33.5" height="20" as="geometry" />
        </mxCell>
        <mxCell id="NQ36R5JoBt0L2JiC82tn-8" value="resouce group&lt;div&gt;&lt;br&gt;&lt;/div&gt;" style="image;sketch=0;aspect=fixed;html=1;points=[];align=center;fontSize=12;image=img/lib/mscae/ResourceGroup.svg;" vertex="1" parent="1">
          <mxGeometry x="560" y="420" width="37.5" height="30" as="geometry" />
        </mxCell>
        <mxCell id="NQ36R5JoBt0L2JiC82tn-10" value="" style="rounded=1;whiteSpace=wrap;html=1;" vertex="1" parent="1">
          <mxGeometry x="260" y="70" width="200" height="150" as="geometry" />
        </mxCell>
        <mxCell id="NQ36R5JoBt0L2JiC82tn-16" value="" style="edgeStyle=orthogonalEdgeStyle;rounded=0;orthogonalLoop=1;jettySize=auto;html=1;" edge="1" parent="1" source="NQ36R5JoBt0L2JiC82tn-9" target="NQ36R5JoBt0L2JiC82tn-15">
          <mxGeometry relative="1" as="geometry" />
        </mxCell>
        <mxCell id="NQ36R5JoBt0L2JiC82tn-9" value="vmwin server" style="image;sketch=0;aspect=fixed;html=1;points=[];align=center;fontSize=12;image=img/lib/mscae/VirtualMachineWindows.svg;" vertex="1" parent="1">
          <mxGeometry x="279" y="100" width="50" height="46" as="geometry" />
        </mxCell>
        <mxCell id="NQ36R5JoBt0L2JiC82tn-11" value="subnet" style="text;html=1;align=center;verticalAlign=middle;whiteSpace=wrap;rounded=0;" vertex="1" parent="1">
          <mxGeometry x="340" y="190" width="60" height="30" as="geometry" />
        </mxCell>
        <mxCell id="NQ36R5JoBt0L2JiC82tn-13" value="api crud" style="dashed=0;outlineConnect=0;html=1;align=center;labelPosition=center;verticalLabelPosition=bottom;verticalAlign=top;shape=mxgraph.weblogos.java" vertex="1" parent="1">
          <mxGeometry x="400" y="260" width="30" height="65.5" as="geometry" />
        </mxCell>
        <mxCell id="NQ36R5JoBt0L2JiC82tn-17" value="" style="edgeStyle=orthogonalEdgeStyle;rounded=0;orthogonalLoop=1;jettySize=auto;html=1;" edge="1" parent="1" source="NQ36R5JoBt0L2JiC82tn-15" target="NQ36R5JoBt0L2JiC82tn-13">
          <mxGeometry relative="1" as="geometry" />
        </mxCell>
        <mxCell id="NQ36R5JoBt0L2JiC82tn-15" value="front" style="shape=image;html=1;verticalAlign=top;verticalLabelPosition=bottom;labelBackgroundColor=#ffffff;imageAspect=0;aspect=fixed;image=https://cdn1.iconfinder.com/data/icons/unicons-line-vol-5/24/react-128.png" vertex="1" parent="1">
          <mxGeometry x="389" y="97" width="52" height="52" as="geometry" />
        </mxCell>
        <mxCell id="NQ36R5JoBt0L2JiC82tn-19" value="" style="image;aspect=fixed;html=1;points=[];align=center;fontSize=12;image=img/lib/azure2/general/Subscriptions.svg;" vertex="1" parent="1">
          <mxGeometry x="260" y="-80" width="37.49" height="60.5" as="geometry" />
        </mxCell>
        <mxCell id="NQ36R5JoBt0L2JiC82tn-20" value="Subscriptions" style="text;html=1;align=center;verticalAlign=middle;whiteSpace=wrap;rounded=0;" vertex="1" parent="1">
          <mxGeometry x="304" y="-64.75" width="86" height="30" as="geometry" />
        </mxCell>
      </root>
    </mxGraphModel>
  </diagram>
</mxfile>
